# xmcd
#
# Track frame offsets: 
#        150
#        31590
#        46295
#        77810
#        107908
#        152610
#        180563
#        200163
#        227065
#        257785
#        271850
#
# Disc length: 3902 seconds
#
# Revision: 2
# Processed by: cddbd v1.5.2PL0 Copyright (c) Steve Scherf et al.
# Submitted via: ExactAudioCopy v0.95b4
#
DISCID=8a0f3c0b
DTITLE=Coleman Hawkins - The Best of
DYEAR=2004
DGENRE=Jazz
TTITLE0=I'm Beginning to See the Light
TTITLE1=Greensleeves
TTITLE2=Since I Fell for You
TTITLE3=I'll Get By (As Long as I Have You)
TTITLE4=Soul Blues
TTITLE5=I'll Never Be the Same
TTITLE6=The Sweetest Sounds (from No Strings)
TTITLE7=I Want to Be Loved
TTITLE8=In a Mellow Tone
TTITLE9=Make Someone Happy (from Do Re Mi)
TTITLE10=Smoke Gets in Your Eyes
EXTD=Audio CD (August 31, 2004) \nLabel: Prestige \n\nCredits:\n  Joe 
EXTD=Tarantino Remastering  \n  Joe Thomas Trumpet  \n  Idrees Suliema
EXTD=n Trumpet  \n  Walter Bolden Drums  \n  Esmond Edwards Photograph
EXTD=y  \n  Wendell Marshall Bass  \n  Charles "Specs" Wright Drums  \n
EXTD=Roy Gaines Guitar  \n  Osie Johnson Drums  \n  Gus Johnson Drum
EXTD=s  \n  Doug Watkins Bass  \n  Ray Bryant Piano  \n  Bob Bernotas 
EXTD=Liner Notes  \n  Jerry Valentine Arranger  \n  Eddie Locke Drums 
EXTD=\n  Pepper Adams Sax (Baritone)  \n  Rudy Van Gelder Engineer  \n
EXTD=Major Holley Bass  \n  Eddie "Lockjaw" Davis Sax (Tenor)  \n  T
EXTD=ommy Flanagan Piano  \n  Kenny Burrell Guitar  \n  Ronnell Bright
EXTD=Piano  \n  Coleman Hawkins Sax (Tenor)  \n  Red Garland Piano  \n
EXTD=Jerome Richardson Sax (Alto)
EXTT0=
EXTT1=
EXTT2=
EXTT3=
EXTT4=
EXTT5=
EXTT6=
EXTT7=
EXTT8=
EXTT9=
EXTT10=
PLAYORDER=
